solid Plate_Default_sldprt
   facet normal 0.000000e+000 0.000000e+000 -1.000000e+000
      outer loop
         vertex 4.607792e+001 -3.983065e+001 0.000000e+000
         vertex 4.505271e+001 -4.162936e+001 0.000000e+000
         vertex -4.750000e+001 1.961411e+001 0.000000e+000
      endloop
   endfacet
   facet normal 0.000000e+000 0.000000e+000 -1.000000e+000
      outer loop
         vertex -2.699654e+001 6.357235e+001 0.000000e+000
         vertex 2.703720e+001 6.357235e+001 0.000000e+000
         vertex -4.520476e+001 2.891688e+001 0.000000e+000
      endloop
   endfacet
   facet normal 0.000000e+000 0.000000e+000 -1.000000e+000
      outer loop
         vertex -4.520476e+001 2.891688e+001 0.000000e+000
         vertex 2.703720e+001 6.357235e+001 0.000000e+000
         vertex 2.717373e+001 6.331042e+001 -8.131516e-017
      endloop
   endfacet
   facet normal 0.000000e+000 0.000000e+000 -1.000000e+000
      outer loop
         vertex -4.520476e+001 2.891688e+001 0.000000e+000
         vertex 2.717373e+001 6.331042e+001 -8.131516e-017
         vertex -4.646875e+001 2.595340e+001 0.000000e+000
      endloop
   endfacet
   facet normal 0.000000e+000 0.000000e+000 -1.000000e+000
      outer loop
         vertex 3.420695e+001 -7.139721e+001 0.000000e+000
         vertex -3.475387e+001 -7.139721e+001 -7.228015e-017
         vertex 4.505271e+001 -4.162936e+001 0.000000e+000
      endloop
   endfacet
   facet normal 0.000000e+000 0.000000e+000 -1.000000e+000
      outer loop
         vertex 4.505271e+001 -4.162936e+001 0.000000e+000
         vertex -3.475387e+001 -7.139721e+001 -7.228015e-017
         vertex -4.622918e+001 -4.076188e+001 -1.626303e-016
      endloop
   endfacet
   facet normal 0.000000e+000 0.000000e+000 -1.000000e+000
      outer loop
         vertex 4.505271e+001 -4.162936e+001 0.000000e+000
         vertex -4.622918e+001 -4.076188e+001 -1.626303e-016
         vertex -4.693182e+001 -3.847968e+001 0.000000e+000
      endloop
   endfacet
   facet normal 0.000000e+000 0.000000e+000 -1.000000e+000
      outer loop
         vertex 4.712684e+001 2.366150e+001 0.000000e+000
         vertex 4.750000e+001 2.088864e+001 0.000000e+000
         vertex -4.750000e+001 1.961411e+001 0.000000e+000
      endloop
   endfacet
   facet normal 0.000000e+000 0.000000e+000 -1.000000e+000
      outer loop
         vertex -4.693182e+001 -3.847968e+001 0.000000e+000
         vertex -4.735745e+001 -3.613000e+001 0.000000e+000
         vertex 4.505271e+001 -4.162936e+001 0.000000e+000
      endloop
   endfacet
   facet normal 0.000000e+000 0.000000e+000 -1.000000e+000
      outer loop
         vertex 4.505271e+001 -4.162936e+001 0.000000e+000
         vertex -4.735745e+001 -3.613000e+001 0.000000e+000
         vertex -4.750000e+001 -3.374634e+001 0.000000e+000
      endloop
   endfacet
   facet normal 0.000000e+000 0.000000e+000 -1.000000e+000
      outer loop
         vertex 4.505271e+001 -4.162936e+001 0.000000e+000
         vertex -4.750000e+001 -3.374634e+001 0.000000e+000
         vertex -4.750000e+001 1.961411e+001 0.000000e+000
      endloop
   endfacet
   facet normal 0.000000e+000 0.000000e+000 -1.000000e+000
      outer loop
         vertex -4.646875e+001 2.595340e+001 0.000000e+000
         vertex 2.717373e+001 6.331042e+001 -8.131516e-017
         vertex -4.724050e+001 2.282542e+001 0.000000e+000
      endloop
   endfacet
   facet normal 0.000000e+000 0.000000e+000 -1.000000e+000
      outer loop
         vertex -4.724050e+001 2.282542e+001 0.000000e+000
         vertex 2.717373e+001 6.331042e+001 -8.131516e-017
         vertex 4.524541e+001 2.891688e+001 -1.626303e-016
      endloop
   endfacet
   facet normal 0.000000e+000 0.000000e+000 -1.000000e+000
      outer loop
         vertex -4.724050e+001 2.282542e+001 0.000000e+000
         vertex 4.524541e+001 2.891688e+001 -1.626303e-016
         vertex -4.750000e+001 1.961411e+001 0.000000e+000
      endloop
   endfacet
   facet normal 0.000000e+000 0.000000e+000 -1.000000e+000
      outer loop
         vertex -4.750000e+001 1.961411e+001 0.000000e+000
         vertex 4.524541e+001 2.891688e+001 -1.626303e-016
         vertex 4.637038e+001 2.635515e+001 0.000000e+000
      endloop
   endfacet
   facet normal 0.000000e+000 0.000000e+000 -1.000000e+000
      outer loop
         vertex -4.750000e+001 1.961411e+001 0.000000e+000
         vertex 4.637038e+001 2.635515e+001 0.000000e+000
         vertex 4.712684e+001 2.366150e+001 0.000000e+000
      endloop
   endfacet
   facet normal 0.000000e+000 0.000000e+000 -1.000000e+000
      outer loop
         vertex 4.750000e+001 2.088864e+001 0.000000e+000
         vertex 4.750000e+001 -3.533764e+001 0.000000e+000
         vertex -4.750000e+001 1.961411e+001 0.000000e+000
      endloop
   endfacet
   facet normal 0.000000e+000 0.000000e+000 -1.000000e+000
      outer loop
         vertex -4.750000e+001 1.961411e+001 0.000000e+000
         vertex 4.750000e+001 -3.533764e+001 0.000000e+000
         vertex 4.698582e+001 -3.758772e+001 0.000000e+000
      endloop
   endfacet
   facet normal 0.000000e+000 0.000000e+000 -1.000000e+000
      outer loop
         vertex -4.750000e+001 1.961411e+001 0.000000e+000
         vertex 4.698582e+001 -3.758772e+001 0.000000e+000
         vertex 4.607792e+001 -3.983065e+001 0.000000e+000
      endloop
   endfacet
   facet normal 8.862538e-001 4.632001e-001 0.000000e+000
      outer loop
         vertex 2.717373e+001 6.331042e+001 -8.131516e-017
         vertex 2.703720e+001 6.357235e+001 0.000000e+000
         vertex 2.717373e+001 6.331042e+001 5.000000e-001
      endloop
   endfacet
   facet normal 8.872651e-001 4.612599e-001 0.000000e+000
      outer loop
         vertex 2.717373e+001 6.331042e+001 5.000000e-001
         vertex 2.703720e+001 6.357235e+001 0.000000e+000
         vertex 2.703720e+001 6.357235e+001 5.000000e-001
      endloop
   endfacet
   facet normal -2.568356e-016 1.000000e+000 0.000000e+000
      outer loop
         vertex 2.703720e+001 6.357235e+001 0.000000e+000
         vertex -2.699654e+001 6.357235e+001 0.000000e+000
         vertex 2.703720e+001 6.357235e+001 5.000000e-001
      endloop
   endfacet
   facet normal -2.568356e-016 1.000000e+000 0.000000e+000
      outer loop
         vertex 2.703720e+001 6.357235e+001 5.000000e-001
         vertex -2.699654e+001 6.357235e+001 0.000000e+000
         vertex -2.699654e+001 6.357235e+001 5.000000e-001
      endloop
   endfacet
   facet normal -8.852497e-001 4.651161e-001 0.000000e+000
      outer loop
         vertex -2.699654e+001 6.357235e+001 0.000000e+000
         vertex -4.520476e+001 2.891688e+001 0.000000e+000
         vertex -2.699654e+001 6.357235e+001 5.000000e-001
      endloop
   endfacet
   facet normal -8.852497e-001 4.651161e-001 0.000000e+000
      outer loop
         vertex -2.699654e+001 6.357235e+001 5.000000e-001
         vertex -4.520476e+001 2.891688e+001 0.000000e+000
         vertex -4.520476e+001 2.891688e+001 5.000000e-001
      endloop
   endfacet
   facet normal -9.985583e-001 5.367681e-002 0.000000e+000
      outer loop
         vertex -4.750000e+001 1.961411e+001 0.000000e+000
         vertex -4.750000e+001 1.961411e+001 5.000000e-001
         vertex -4.724050e+001 2.282542e+001 5.000000e-001
      endloop
   endfacet
   facet normal -9.942209e-001 1.073536e-001 0.000000e+000
      outer loop
         vertex -4.750000e+001 1.961411e+001 0.000000e+000
         vertex -4.724050e+001 2.282542e+001 5.000000e-001
         vertex -4.724050e+001 2.282542e+001 0.000000e+000
      endloop
   endfacet
   facet normal -9.769836e-001 2.133144e-001 0.000000e+000
      outer loop
         vertex -4.724050e+001 2.282542e+001 0.000000e+000
         vertex -4.724050e+001 2.282542e+001 5.000000e-001
         vertex -4.646875e+001 2.595340e+001 5.000000e-001
      endloop
   endfacet
   facet normal -9.640838e-001 2.655983e-001 0.000000e+000
      outer loop
         vertex -4.724050e+001 2.282542e+001 0.000000e+000
         vertex -4.646875e+001 2.595340e+001 5.000000e-001
         vertex -4.646875e+001 2.595340e+001 0.000000e+000
      endloop
   endfacet
   facet normal -9.300566e-001 3.674165e-001 0.000000e+000
      outer loop
         vertex -4.646875e+001 2.595340e+001 0.000000e+000
         vertex -4.646875e+001 2.595340e+001 5.000000e-001
         vertex -4.520476e+001 2.891688e+001 5.000000e-001
      endloop
   endfacet
   facet normal -9.089290e-001 4.169508e-001 0.000000e+000
      outer loop
         vertex -4.646875e+001 2.595340e+001 0.000000e+000
         vertex -4.520476e+001 2.891688e+001 5.000000e-001
         vertex -4.520476e+001 2.891688e+001 0.000000e+000
      endloop
   endfacet
   facet normal -1.000000e+000 -1.300381e-016 0.000000e+000
      outer loop
         vertex -4.750000e+001 1.961411e+001 0.000000e+000
         vertex -4.750000e+001 -3.374634e+001 0.000000e+000
         vertex -4.750000e+001 1.961411e+001 5.000000e-001
      endloop
   endfacet
   facet normal -1.000000e+000 -1.300381e-016 0.000000e+000
      outer loop
         vertex -4.750000e+001 1.961411e+001 5.000000e-001
         vertex -4.750000e+001 -3.374634e+001 0.000000e+000
         vertex -4.750000e+001 -3.374634e+001 5.000000e-001
      endloop
   endfacet
   facet normal -9.496751e-001 -3.132367e-001 0.000000e+000
      outer loop
         vertex -4.622918e+001 -4.076188e+001 -1.626303e-016
         vertex -4.622918e+001 -4.076188e+001 5.000000e-001
         vertex -4.693182e+001 -3.847968e+001 5.000000e-001
      endloop
   endfacet
   facet normal -9.614043e-001 -2.751396e-001 0.000000e+000
      outer loop
         vertex -4.622918e+001 -4.076188e+001 -1.626303e-016
         vertex -4.693182e+001 -3.847968e+001 5.000000e-001
         vertex -4.693182e+001 -3.847968e+001 0.000000e+000
      endloop
   endfacet
   facet normal -9.802385e-001 -1.978191e-001 0.000000e+000
      outer loop
         vertex -4.693182e+001 -3.847968e+001 0.000000e+000
         vertex -4.693182e+001 -3.847968e+001 5.000000e-001
         vertex -4.735745e+001 -3.613000e+001 5.000000e-001
      endloop
   endfacet
   facet normal -9.873436e-001 -1.585956e-001 0.000000e+000
      outer loop
         vertex -4.693182e+001 -3.847968e+001 0.000000e+000
         vertex -4.735745e+001 -3.613000e+001 5.000000e-001
         vertex -4.735745e+001 -3.613000e+001 0.000000e+000
      endloop
   endfacet
   facet normal -9.968284e-001 -7.958142e-002 0.000000e+000
      outer loop
         vertex -4.735745e+001 -3.613000e+001 0.000000e+000
         vertex -4.735745e+001 -3.613000e+001 5.000000e-001
         vertex -4.750000e+001 -3.374634e+001 5.000000e-001
      endloop
   endfacet
   facet normal -9.992080e-001 -3.979071e-002 0.000000e+000
      outer loop
         vertex -4.735745e+001 -3.613000e+001 0.000000e+000
         vertex -4.750000e+001 -3.374634e+001 5.000000e-001
         vertex -4.750000e+001 -3.374634e+001 0.000000e+000
      endloop
   endfacet
   facet normal -9.364591e-001 -3.507768e-001 0.000000e+000
      outer loop
         vertex -4.622918e+001 -4.076188e+001 -1.626303e-016
         vertex -3.475387e+001 -7.139721e+001 -7.228015e-017
         vertex -4.622918e+001 -4.076188e+001 5.000000e-001
      endloop
   endfacet
   facet normal -9.364591e-001 -3.507768e-001 0.000000e+000
      outer loop
         vertex -4.622918e+001 -4.076188e+001 5.000000e-001
         vertex -3.475387e+001 -7.139721e+001 -7.228015e-017
         vertex -3.475387e+001 -7.139721e+001 5.000000e-001
      endloop
   endfacet
   facet normal 0.000000e+000 -1.000000e+000 0.000000e+000
      outer loop
         vertex -3.475387e+001 -7.139721e+001 -7.228015e-017
         vertex 3.420695e+001 -7.139721e+001 0.000000e+000
         vertex -3.475387e+001 -7.139721e+001 5.000000e-001
      endloop
   endfacet
   facet normal 0.000000e+000 -1.000000e+000 0.000000e+000
      outer loop
         vertex -3.475387e+001 -7.139721e+001 5.000000e-001
         vertex 3.420695e+001 -7.139721e+001 0.000000e+000
         vertex 3.420695e+001 -7.139721e+001 5.000000e-001
      endloop
   endfacet
   facet normal 9.395795e-001 -3.423309e-001 0.000000e+000
      outer loop
         vertex 3.420695e+001 -7.139721e+001 0.000000e+000
         vertex 4.505271e+001 -4.162936e+001 0.000000e+000
         vertex 3.420695e+001 -7.139721e+001 5.000000e-001
      endloop
   endfacet
   facet normal 9.395795e-001 -3.423309e-001 0.000000e+000
      outer loop
         vertex 3.420695e+001 -7.139721e+001 5.000000e-001
         vertex 4.505271e+001 -4.162936e+001 0.000000e+000
         vertex 4.505271e+001 -4.162936e+001 5.000000e-001
      endloop
   endfacet
   facet normal 8.600370e-001 -5.102316e-001 0.000000e+000
      outer loop
         vertex 4.505271e+001 -4.162936e+001 5.000000e-001
         vertex 4.505271e+001 -4.162936e+001 0.000000e+000
         vertex 4.607792e+001 -3.983065e+001 0.000000e+000
      endloop
   endfacet
   facet normal 8.786988e-001 -4.773768e-001 0.000000e+000
      outer loop
         vertex 4.505271e+001 -4.162936e+001 5.000000e-001
         vertex 4.607792e+001 -3.983065e+001 0.000000e+000
         vertex 4.607792e+001 -3.983065e+001 5.000000e-001
      endloop
   endfacet
   facet normal 9.176996e-001 -3.972750e-001 0.000000e+000
      outer loop
         vertex 4.607792e+001 -3.983065e+001 5.000000e-001
         vertex 4.607792e+001 -3.983065e+001 0.000000e+000
         vertex 4.698582e+001 -3.758772e+001 0.000000e+000
      endloop
   endfacet
   facet normal 9.369420e-001 -3.494847e-001 0.000000e+000
      outer loop
         vertex 4.607792e+001 -3.983065e+001 5.000000e-001
         vertex 4.698582e+001 -3.758772e+001 0.000000e+000
         vertex 4.698582e+001 -3.758772e+001 5.000000e-001
      endloop
   endfacet
   facet normal 9.686470e-001 -2.484411e-001 0.000000e+000
      outer loop
         vertex 4.698582e+001 -3.758772e+001 5.000000e-001
         vertex 4.698582e+001 -3.758772e+001 0.000000e+000
         vertex 4.750000e+001 -3.533764e+001 0.000000e+000
      endloop
   endfacet
   facet normal 9.807862e-001 -1.950857e-001 0.000000e+000
      outer loop
         vertex 4.698582e+001 -3.758772e+001 5.000000e-001
         vertex 4.750000e+001 -3.533764e+001 0.000000e+000
         vertex 4.750000e+001 -3.533764e+001 5.000000e-001
      endloop
   endfacet
   facet normal 1.000000e+000 0.000000e+000 0.000000e+000
      outer loop
         vertex 4.750000e+001 -3.533764e+001 0.000000e+000
         vertex 4.750000e+001 2.088864e+001 0.000000e+000
         vertex 4.750000e+001 -3.533764e+001 5.000000e-001
      endloop
   endfacet
   facet normal 1.000000e+000 0.000000e+000 0.000000e+000
      outer loop
         vertex 4.750000e+001 -3.533764e+001 5.000000e-001
         vertex 4.750000e+001 2.088864e+001 0.000000e+000
         vertex 4.750000e+001 2.088864e+001 5.000000e-001
      endloop
   endfacet
   facet normal 9.059596e-001 4.233642e-001 0.000000e+000
      outer loop
         vertex 4.524541e+001 2.891688e+001 -1.626303e-016
         vertex 4.524541e+001 2.891688e+001 5.000000e-001
         vertex 4.637038e+001 2.635515e+001 5.000000e-001
      endloop
   endfacet
   facet normal 9.247499e-001 3.805756e-001 0.000000e+000
      outer loop
         vertex 4.524541e+001 2.891688e+001 -1.626303e-016
         vertex 4.637038e+001 2.635515e+001 5.000000e-001
         vertex 4.637038e+001 2.635515e+001 0.000000e+000
      endloop
   endfacet
   facet normal 9.561753e-001 2.927949e-001 0.000000e+000
      outer loop
         vertex 4.637038e+001 2.635515e+001 0.000000e+000
         vertex 4.637038e+001 2.635515e+001 5.000000e-001
         vertex 4.712684e+001 2.366150e+001 5.000000e-001
      endloop
   endfacet
   facet normal 9.688105e-001 2.478028e-001 0.000000e+000
      outer loop
         vertex 4.637038e+001 2.635515e+001 0.000000e+000
         vertex 4.712684e+001 2.366150e+001 5.000000e-001
         vertex 4.712684e+001 2.366150e+001 0.000000e+000
      endloop
   endfacet
   facet normal 9.876786e-001 1.564956e-001 0.000000e+000
      outer loop
         vertex 4.712684e+001 2.366150e+001 0.000000e+000
         vertex 4.712684e+001 2.366150e+001 5.000000e-001
         vertex 4.750000e+001 2.088864e+001 5.000000e-001
      endloop
   endfacet
   facet normal 9.939116e-001 1.101805e-001 0.000000e+000
      outer loop
         vertex 4.712684e+001 2.366150e+001 0.000000e+000
         vertex 4.750000e+001 2.088864e+001 5.000000e-001
         vertex 4.750000e+001 2.088864e+001 0.000000e+000
      endloop
   endfacet
   facet normal 8.852382e-001 4.651381e-001 0.000000e+000
      outer loop
         vertex 4.524541e+001 2.891688e+001 -1.626303e-016
         vertex 2.717373e+001 6.331042e+001 -8.131516e-017
         vertex 4.524541e+001 2.891688e+001 5.000000e-001
      endloop
   endfacet
   facet normal 8.852382e-001 4.651381e-001 0.000000e+000
      outer loop
         vertex 4.524541e+001 2.891688e+001 5.000000e-001
         vertex 2.717373e+001 6.331042e+001 -8.131516e-017
         vertex 2.717373e+001 6.331042e+001 5.000000e-001
      endloop
   endfacet
   facet normal 0.000000e+000 0.000000e+000 1.000000e+000
      outer loop
         vertex -3.475387e+001 -7.139721e+001 5.000000e-001
         vertex 3.420695e+001 -7.139721e+001 5.000000e-001
         vertex -4.622918e+001 -4.076188e+001 5.000000e-001
      endloop
   endfacet
   facet normal 0.000000e+000 0.000000e+000 1.000000e+000
      outer loop
         vertex -4.622918e+001 -4.076188e+001 5.000000e-001
         vertex 3.420695e+001 -7.139721e+001 5.000000e-001
         vertex 4.505271e+001 -4.162936e+001 5.000000e-001
      endloop
   endfacet
   facet normal 0.000000e+000 0.000000e+000 1.000000e+000
      outer loop
         vertex 2.703720e+001 6.357235e+001 5.000000e-001
         vertex -2.699654e+001 6.357235e+001 5.000000e-001
         vertex -4.520476e+001 2.891688e+001 5.000000e-001
      endloop
   endfacet
   facet normal 0.000000e+000 0.000000e+000 1.000000e+000
      outer loop
         vertex -4.750000e+001 -3.374634e+001 5.000000e-001
         vertex 4.505271e+001 -4.162936e+001 5.000000e-001
         vertex -4.750000e+001 1.961411e+001 5.000000e-001
      endloop
   endfacet
   facet normal 0.000000e+000 0.000000e+000 1.000000e+000
      outer loop
         vertex -4.750000e+001 1.961411e+001 5.000000e-001
         vertex 4.505271e+001 -4.162936e+001 5.000000e-001
         vertex 4.607792e+001 -3.983065e+001 5.000000e-001
      endloop
   endfacet
   facet normal 0.000000e+000 0.000000e+000 1.000000e+000
      outer loop
         vertex -4.750000e+001 -3.374634e+001 5.000000e-001
         vertex -4.735745e+001 -3.613000e+001 5.000000e-001
         vertex 4.505271e+001 -4.162936e+001 5.000000e-001
      endloop
   endfacet
   facet normal 0.000000e+000 0.000000e+000 1.000000e+000
      outer loop
         vertex 4.505271e+001 -4.162936e+001 5.000000e-001
         vertex -4.735745e+001 -3.613000e+001 5.000000e-001
         vertex -4.693182e+001 -3.847968e+001 5.000000e-001
      endloop
   endfacet
   facet normal 0.000000e+000 0.000000e+000 1.000000e+000
      outer loop
         vertex 4.505271e+001 -4.162936e+001 5.000000e-001
         vertex -4.693182e+001 -3.847968e+001 5.000000e-001
         vertex -4.622918e+001 -4.076188e+001 5.000000e-001
      endloop
   endfacet
   facet normal 0.000000e+000 0.000000e+000 1.000000e+000
      outer loop
         vertex 2.703720e+001 6.357235e+001 5.000000e-001
         vertex -4.520476e+001 2.891688e+001 5.000000e-001
         vertex 2.717373e+001 6.331042e+001 5.000000e-001
      endloop
   endfacet
   facet normal 0.000000e+000 0.000000e+000 1.000000e+000
      outer loop
         vertex 2.717373e+001 6.331042e+001 5.000000e-001
         vertex -4.520476e+001 2.891688e+001 5.000000e-001
         vertex -4.646875e+001 2.595340e+001 5.000000e-001
      endloop
   endfacet
   facet normal 0.000000e+000 0.000000e+000 1.000000e+000
      outer loop
         vertex 2.717373e+001 6.331042e+001 5.000000e-001
         vertex -4.646875e+001 2.595340e+001 5.000000e-001
         vertex 4.524541e+001 2.891688e+001 5.000000e-001
      endloop
   endfacet
   facet normal 0.000000e+000 0.000000e+000 1.000000e+000
      outer loop
         vertex 4.524541e+001 2.891688e+001 5.000000e-001
         vertex -4.646875e+001 2.595340e+001 5.000000e-001
         vertex -4.724050e+001 2.282542e+001 5.000000e-001
      endloop
   endfacet
   facet normal 0.000000e+000 0.000000e+000 1.000000e+000
      outer loop
         vertex 4.524541e+001 2.891688e+001 5.000000e-001
         vertex -4.724050e+001 2.282542e+001 5.000000e-001
         vertex -4.750000e+001 1.961411e+001 5.000000e-001
      endloop
   endfacet
   facet normal 0.000000e+000 0.000000e+000 1.000000e+000
      outer loop
         vertex 4.607792e+001 -3.983065e+001 5.000000e-001
         vertex 4.698582e+001 -3.758772e+001 5.000000e-001
         vertex -4.750000e+001 1.961411e+001 5.000000e-001
      endloop
   endfacet
   facet normal 0.000000e+000 0.000000e+000 1.000000e+000
      outer loop
         vertex -4.750000e+001 1.961411e+001 5.000000e-001
         vertex 4.698582e+001 -3.758772e+001 5.000000e-001
         vertex 4.750000e+001 -3.533764e+001 5.000000e-001
      endloop
   endfacet
   facet normal 0.000000e+000 0.000000e+000 1.000000e+000
      outer loop
         vertex -4.750000e+001 1.961411e+001 5.000000e-001
         vertex 4.750000e+001 -3.533764e+001 5.000000e-001
         vertex 4.750000e+001 2.088864e+001 5.000000e-001
      endloop
   endfacet
   facet normal 0.000000e+000 0.000000e+000 1.000000e+000
      outer loop
         vertex 4.750000e+001 2.088864e+001 5.000000e-001
         vertex 4.712684e+001 2.366150e+001 5.000000e-001
         vertex -4.750000e+001 1.961411e+001 5.000000e-001
      endloop
   endfacet
   facet normal 0.000000e+000 0.000000e+000 1.000000e+000
      outer loop
         vertex -4.750000e+001 1.961411e+001 5.000000e-001
         vertex 4.712684e+001 2.366150e+001 5.000000e-001
         vertex 4.637038e+001 2.635515e+001 5.000000e-001
      endloop
   endfacet
   facet normal 0.000000e+000 0.000000e+000 1.000000e+000
      outer loop
         vertex -4.750000e+001 1.961411e+001 5.000000e-001
         vertex 4.637038e+001 2.635515e+001 5.000000e-001
         vertex 4.524541e+001 2.891688e+001 5.000000e-001
      endloop
   endfacet
endsolid