solid Rod_Default_sldprt
   facet normal 0.000000e+000 1.000000e+000 0.000000e+000
      outer loop
         vertex 5.000000e-001 3.000000e+000 -7.000000e+000
         vertex -5.000000e-001 3.000000e+000 -7.000000e+000
         vertex 5.000000e-001 3.000000e+000 1.250000e+002
      endloop
   endfacet
   facet normal 0.000000e+000 1.000000e+000 0.000000e+000
      outer loop
         vertex 5.000000e-001 3.000000e+000 1.250000e+002
         vertex -5.000000e-001 3.000000e+000 -7.000000e+000
         vertex -5.000000e-001 3.000000e+000 1.250000e+002
      endloop
   endfacet
   facet normal 5.228807e-002 9.986320e-001 0.000000e+000
      outer loop
         vertex 5.000000e-001 3.000000e+000 -7.000000e+000
         vertex 5.000000e-001 3.000000e+000 1.250000e+002
         vertex 8.910862e-001 2.969221e+000 1.250000e+002
      endloop
   endfacet
   facet normal 1.045761e-001 9.945168e-001 0.000000e+000
      outer loop
         vertex 5.000000e-001 3.000000e+000 -7.000000e+000
         vertex 8.910862e-001 2.969221e+000 1.250000e+002
         vertex 8.910862e-001 2.969221e+000 -7.000000e+000
      endloop
   endfacet
   facet normal 2.078648e-001 9.781576e-001 0.000000e+000
      outer loop
         vertex 8.910862e-001 2.969221e+000 -7.000000e+000
         vertex 8.910862e-001 2.969221e+000 1.250000e+002
         vertex 1.272542e+000 2.877641e+000 1.250000e+002
      endloop
   endfacet
   facet normal 2.588653e-001 9.659134e-001 0.000000e+000
      outer loop
         vertex 8.910862e-001 2.969221e+000 -7.000000e+000
         vertex 1.272542e+000 2.877641e+000 1.250000e+002
         vertex 1.272542e+000 2.877641e+000 -7.000000e+000
      endloop
   endfacet
   facet normal 3.583232e-001 9.335976e-001 0.000000e+000
      outer loop
         vertex 1.272542e+000 2.877641e+000 -7.000000e+000
         vertex 1.272542e+000 2.877641e+000 1.250000e+002
         vertex 1.634976e+000 2.727516e+000 1.250000e+002
      endloop
   endfacet
   facet normal 4.067805e-001 9.135259e-001 0.000000e+000
      outer loop
         vertex 1.272542e+000 2.877641e+000 -7.000000e+000
         vertex 1.634976e+000 2.727516e+000 1.250000e+002
         vertex 1.634976e+000 2.727516e+000 -7.000000e+000
      endloop
   endfacet
   facet normal 4.999584e-001 8.660494e-001 0.000000e+000
      outer loop
         vertex 1.634976e+000 2.727516e+000 -7.000000e+000
         vertex 1.634976e+000 2.727516e+000 1.250000e+002
         vertex 1.969463e+000 2.522542e+000 1.250000e+002
      endloop
   endfacet
   facet normal 5.446792e-001 8.386444e-001 0.000000e+000
      outer loop
         vertex 1.634976e+000 2.727516e+000 -7.000000e+000
         vertex 1.969463e+000 2.522542e+000 1.250000e+002
         vertex 1.969463e+000 2.522542e+000 -7.000000e+000
      endloop
   endfacet
   facet normal 6.292831e-001 7.771761e-001 0.000000e+000
      outer loop
         vertex 1.969463e+000 2.522542e+000 -7.000000e+000
         vertex 1.969463e+000 2.522542e+000 1.250000e+002
         vertex 2.267767e+000 2.267767e+000 1.250000e+002
      endloop
   endfacet
   facet normal 6.691663e-001 7.431127e-001 0.000000e+000
      outer loop
         vertex 1.969463e+000 2.522542e+000 -7.000000e+000
         vertex 2.267767e+000 2.267767e+000 1.250000e+002
         vertex 2.267767e+000 2.267767e+000 -7.000000e+000
      endloop
   endfacet
   facet normal 7.431127e-001 6.691663e-001 0.000000e+000
      outer loop
         vertex 2.267767e+000 2.267767e+000 -7.000000e+000
         vertex 2.267767e+000 2.267767e+000 1.250000e+002
         vertex 2.522542e+000 1.969463e+000 1.250000e+002
      endloop
   endfacet
   facet normal 7.771761e-001 6.292831e-001 0.000000e+000
      outer loop
         vertex 2.267767e+000 2.267767e+000 -7.000000e+000
         vertex 2.522542e+000 1.969463e+000 1.250000e+002
         vertex 2.522542e+000 1.969463e+000 -7.000000e+000
      endloop
   endfacet
   facet normal 8.386444e-001 5.446792e-001 0.000000e+000
      outer loop
         vertex 2.522542e+000 1.969463e+000 -7.000000e+000
         vertex 2.522542e+000 1.969463e+000 1.250000e+002
         vertex 2.727516e+000 1.634976e+000 1.250000e+002
      endloop
   endfacet
   facet normal 8.660494e-001 4.999584e-001 0.000000e+000
      outer loop
         vertex 2.522542e+000 1.969463e+000 -7.000000e+000
         vertex 2.727516e+000 1.634976e+000 1.250000e+002
         vertex 2.727516e+000 1.634976e+000 -7.000000e+000
      endloop
   endfacet
   facet normal 9.135259e-001 4.067805e-001 0.000000e+000
      outer loop
         vertex 2.727516e+000 1.634976e+000 -7.000000e+000
         vertex 2.727516e+000 1.634976e+000 1.250000e+002
         vertex 2.877641e+000 1.272542e+000 1.250000e+002
      endloop
   endfacet
   facet normal 9.335976e-001 3.583232e-001 0.000000e+000
      outer loop
         vertex 2.727516e+000 1.634976e+000 -7.000000e+000
         vertex 2.877641e+000 1.272542e+000 1.250000e+002
         vertex 2.877641e+000 1.272542e+000 -7.000000e+000
      endloop
   endfacet
   facet normal 9.659134e-001 2.588653e-001 0.000000e+000
      outer loop
         vertex 2.877641e+000 1.272542e+000 -7.000000e+000
         vertex 2.877641e+000 1.272542e+000 1.250000e+002
         vertex 2.969221e+000 8.910862e-001 1.250000e+002
      endloop
   endfacet
   facet normal 9.781575e-001 2.078648e-001 0.000000e+000
      outer loop
         vertex 2.877641e+000 1.272542e+000 -7.000000e+000
         vertex 2.969221e+000 8.910862e-001 1.250000e+002
         vertex 2.969221e+000 8.910862e-001 -7.000000e+000
      endloop
   endfacet
   facet normal 9.945168e-001 1.045761e-001 0.000000e+000
      outer loop
         vertex 2.969221e+000 8.910862e-001 -7.000000e+000
         vertex 2.969221e+000 8.910862e-001 1.250000e+002
         vertex 3.000000e+000 5.000000e-001 1.250000e+002
      endloop
   endfacet
   facet normal 9.986320e-001 5.228807e-002 0.000000e+000
      outer loop
         vertex 2.969221e+000 8.910862e-001 -7.000000e+000
         vertex 3.000000e+000 5.000000e-001 1.250000e+002
         vertex 3.000000e+000 5.000000e-001 -7.000000e+000
      endloop
   endfacet
   facet normal -9.986320e-001 5.228807e-002 0.000000e+000
      outer loop
         vertex -3.000000e+000 5.000000e-001 -7.000000e+000
         vertex -3.000000e+000 5.000000e-001 1.250000e+002
         vertex -2.969221e+000 8.910862e-001 1.250000e+002
      endloop
   endfacet
   facet normal -9.945168e-001 1.045761e-001 0.000000e+000
      outer loop
         vertex -3.000000e+000 5.000000e-001 -7.000000e+000
         vertex -2.969221e+000 8.910862e-001 1.250000e+002
         vertex -2.969221e+000 8.910862e-001 -7.000000e+000
      endloop
   endfacet
   facet normal -9.781576e-001 2.078648e-001 0.000000e+000
      outer loop
         vertex -2.969221e+000 8.910862e-001 -7.000000e+000
         vertex -2.969221e+000 8.910862e-001 1.250000e+002
         vertex -2.877641e+000 1.272542e+000 1.250000e+002
      endloop
   endfacet
   facet normal -9.659134e-001 2.588653e-001 0.000000e+000
      outer loop
         vertex -2.969221e+000 8.910862e-001 -7.000000e+000
         vertex -2.877641e+000 1.272542e+000 1.250000e+002
         vertex -2.877641e+000 1.272542e+000 -7.000000e+000
      endloop
   endfacet
   facet normal -9.335976e-001 3.583232e-001 0.000000e+000
      outer loop
         vertex -2.877641e+000 1.272542e+000 -7.000000e+000
         vertex -2.877641e+000 1.272542e+000 1.250000e+002
         vertex -2.727516e+000 1.634976e+000 1.250000e+002
      endloop
   endfacet
   facet normal -9.135259e-001 4.067805e-001 0.000000e+000
      outer loop
         vertex -2.877641e+000 1.272542e+000 -7.000000e+000
         vertex -2.727516e+000 1.634976e+000 1.250000e+002
         vertex -2.727516e+000 1.634976e+000 -7.000000e+000
      endloop
   endfacet
   facet normal -8.660494e-001 4.999584e-001 0.000000e+000
      outer loop
         vertex -2.727516e+000 1.634976e+000 -7.000000e+000
         vertex -2.727516e+000 1.634976e+000 1.250000e+002
         vertex -2.522542e+000 1.969463e+000 1.250000e+002
      endloop
   endfacet
   facet normal -8.386444e-001 5.446792e-001 0.000000e+000
      outer loop
         vertex -2.727516e+000 1.634976e+000 -7.000000e+000
         vertex -2.522542e+000 1.969463e+000 1.250000e+002
         vertex -2.522542e+000 1.969463e+000 -7.000000e+000
      endloop
   endfacet
   facet normal -7.771761e-001 6.292831e-001 0.000000e+000
      outer loop
         vertex -2.522542e+000 1.969463e+000 -7.000000e+000
         vertex -2.522542e+000 1.969463e+000 1.250000e+002
         vertex -2.267767e+000 2.267767e+000 1.250000e+002
      endloop
   endfacet
   facet normal -7.431127e-001 6.691663e-001 0.000000e+000
      outer loop
         vertex -2.522542e+000 1.969463e+000 -7.000000e+000
         vertex -2.267767e+000 2.267767e+000 1.250000e+002
         vertex -2.267767e+000 2.267767e+000 -7.000000e+000
      endloop
   endfacet
   facet normal -6.691663e-001 7.431127e-001 0.000000e+000
      outer loop
         vertex -2.267767e+000 2.267767e+000 -7.000000e+000
         vertex -2.267767e+000 2.267767e+000 1.250000e+002
         vertex -1.969463e+000 2.522542e+000 1.250000e+002
      endloop
   endfacet
   facet normal -6.292831e-001 7.771761e-001 0.000000e+000
      outer loop
         vertex -2.267767e+000 2.267767e+000 -7.000000e+000
         vertex -1.969463e+000 2.522542e+000 1.250000e+002
         vertex -1.969463e+000 2.522542e+000 -7.000000e+000
      endloop
   endfacet
   facet normal -5.446792e-001 8.386444e-001 0.000000e+000
      outer loop
         vertex -1.969463e+000 2.522542e+000 -7.000000e+000
         vertex -1.969463e+000 2.522542e+000 1.250000e+002
         vertex -1.634976e+000 2.727516e+000 1.250000e+002
      endloop
   endfacet
   facet normal -4.999584e-001 8.660494e-001 0.000000e+000
      outer loop
         vertex -1.969463e+000 2.522542e+000 -7.000000e+000
         vertex -1.634976e+000 2.727516e+000 1.250000e+002
         vertex -1.634976e+000 2.727516e+000 -7.000000e+000
      endloop
   endfacet
   facet normal -4.067805e-001 9.135259e-001 0.000000e+000
      outer loop
         vertex -1.634976e+000 2.727516e+000 -7.000000e+000
         vertex -1.634976e+000 2.727516e+000 1.250000e+002
         vertex -1.272542e+000 2.877641e+000 1.250000e+002
      endloop
   endfacet
   facet normal -3.583232e-001 9.335976e-001 0.000000e+000
      outer loop
         vertex -1.634976e+000 2.727516e+000 -7.000000e+000
         vertex -1.272542e+000 2.877641e+000 1.250000e+002
         vertex -1.272542e+000 2.877641e+000 -7.000000e+000
      endloop
   endfacet
   facet normal -2.588653e-001 9.659134e-001 0.000000e+000
      outer loop
         vertex -1.272542e+000 2.877641e+000 -7.000000e+000
         vertex -1.272542e+000 2.877641e+000 1.250000e+002
         vertex -8.910862e-001 2.969221e+000 1.250000e+002
      endloop
   endfacet
   facet normal -2.078648e-001 9.781575e-001 0.000000e+000
      outer loop
         vertex -1.272542e+000 2.877641e+000 -7.000000e+000
         vertex -8.910862e-001 2.969221e+000 1.250000e+002
         vertex -8.910862e-001 2.969221e+000 -7.000000e+000
      endloop
   endfacet
   facet normal -1.045761e-001 9.945168e-001 0.000000e+000
      outer loop
         vertex -8.910862e-001 2.969221e+000 -7.000000e+000
         vertex -8.910862e-001 2.969221e+000 1.250000e+002
         vertex -5.000000e-001 3.000000e+000 1.250000e+002
      endloop
   endfacet
   facet normal -5.228807e-002 9.986320e-001 0.000000e+000
      outer loop
         vertex -8.910862e-001 2.969221e+000 -7.000000e+000
         vertex -5.000000e-001 3.000000e+000 1.250000e+002
         vertex -5.000000e-001 3.000000e+000 -7.000000e+000
      endloop
   endfacet
   facet normal 0.000000e+000 0.000000e+000 -1.000000e+000
      outer loop
         vertex -5.000000e-001 3.000000e+000 -7.000000e+000
         vertex -3.000000e+000 5.000000e-001 -7.000000e+000
         vertex -2.969221e+000 8.910862e-001 -7.000000e+000
      endloop
   endfacet
   facet normal 0.000000e+000 0.000000e+000 -1.000000e+000
      outer loop
         vertex 8.910862e-001 2.969221e+000 -7.000000e+000
         vertex 3.000000e+000 5.000000e-001 -7.000000e+000
         vertex 5.000000e-001 3.000000e+000 -7.000000e+000
      endloop
   endfacet
   facet normal 0.000000e+000 0.000000e+000 -1.000000e+000
      outer loop
         vertex 5.000000e-001 3.000000e+000 -7.000000e+000
         vertex 3.000000e+000 5.000000e-001 -7.000000e+000
         vertex 3.000000e+000 -3.000000e+000 -7.000000e+000
      endloop
   endfacet
   facet normal 0.000000e+000 0.000000e+000 -1.000000e+000
      outer loop
         vertex 5.000000e-001 3.000000e+000 -7.000000e+000
         vertex 3.000000e+000 -3.000000e+000 -7.000000e+000
         vertex -5.000000e-001 3.000000e+000 -7.000000e+000
      endloop
   endfacet
   facet normal 0.000000e+000 0.000000e+000 -1.000000e+000
      outer loop
         vertex -5.000000e-001 3.000000e+000 -7.000000e+000
         vertex 3.000000e+000 -3.000000e+000 -7.000000e+000
         vertex -3.000000e+000 -3.000000e+000 -7.000000e+000
      endloop
   endfacet
   facet normal 0.000000e+000 0.000000e+000 -1.000000e+000
      outer loop
         vertex -5.000000e-001 3.000000e+000 -7.000000e+000
         vertex -3.000000e+000 -3.000000e+000 -7.000000e+000
         vertex -3.000000e+000 5.000000e-001 -7.000000e+000
      endloop
   endfacet
   facet normal 0.000000e+000 0.000000e+000 -1.000000e+000
      outer loop
         vertex -2.969221e+000 8.910862e-001 -7.000000e+000
         vertex -2.877641e+000 1.272542e+000 -7.000000e+000
         vertex -5.000000e-001 3.000000e+000 -7.000000e+000
      endloop
   endfacet
   facet normal 0.000000e+000 0.000000e+000 -1.000000e+000
      outer loop
         vertex -5.000000e-001 3.000000e+000 -7.000000e+000
         vertex -2.877641e+000 1.272542e+000 -7.000000e+000
         vertex -2.727516e+000 1.634976e+000 -7.000000e+000
      endloop
   endfacet
   facet normal 0.000000e+000 0.000000e+000 -1.000000e+000
      outer loop
         vertex -5.000000e-001 3.000000e+000 -7.000000e+000
         vertex -2.727516e+000 1.634976e+000 -7.000000e+000
         vertex -2.522542e+000 1.969463e+000 -7.000000e+000
      endloop
   endfacet
   facet normal 0.000000e+000 0.000000e+000 -1.000000e+000
      outer loop
         vertex -1.969463e+000 2.522542e+000 -7.000000e+000
         vertex -1.634976e+000 2.727516e+000 -7.000000e+000
         vertex -1.272542e+000 2.877641e+000 -7.000000e+000
      endloop
   endfacet
   facet normal 0.000000e+000 0.000000e+000 -1.000000e+000
      outer loop
         vertex -2.522542e+000 1.969463e+000 -7.000000e+000
         vertex -2.267767e+000 2.267767e+000 -7.000000e+000
         vertex -5.000000e-001 3.000000e+000 -7.000000e+000
      endloop
   endfacet
   facet normal 0.000000e+000 0.000000e+000 -1.000000e+000
      outer loop
         vertex -5.000000e-001 3.000000e+000 -7.000000e+000
         vertex -2.267767e+000 2.267767e+000 -7.000000e+000
         vertex -1.969463e+000 2.522542e+000 -7.000000e+000
      endloop
   endfacet
   facet normal 0.000000e+000 0.000000e+000 -1.000000e+000
      outer loop
         vertex -5.000000e-001 3.000000e+000 -7.000000e+000
         vertex -1.969463e+000 2.522542e+000 -7.000000e+000
         vertex -8.910862e-001 2.969221e+000 -7.000000e+000
      endloop
   endfacet
   facet normal 0.000000e+000 0.000000e+000 -1.000000e+000
      outer loop
         vertex -8.910862e-001 2.969221e+000 -7.000000e+000
         vertex -1.969463e+000 2.522542e+000 -7.000000e+000
         vertex -1.272542e+000 2.877641e+000 -7.000000e+000
      endloop
   endfacet
   facet normal 0.000000e+000 0.000000e+000 -1.000000e+000
      outer loop
         vertex 8.910862e-001 2.969221e+000 -7.000000e+000
         vertex 1.272542e+000 2.877641e+000 -7.000000e+000
         vertex 3.000000e+000 5.000000e-001 -7.000000e+000
      endloop
   endfacet
   facet normal 0.000000e+000 0.000000e+000 -1.000000e+000
      outer loop
         vertex 3.000000e+000 5.000000e-001 -7.000000e+000
         vertex 1.272542e+000 2.877641e+000 -7.000000e+000
         vertex 1.634976e+000 2.727516e+000 -7.000000e+000
      endloop
   endfacet
   facet normal 0.000000e+000 0.000000e+000 -1.000000e+000
      outer loop
         vertex 3.000000e+000 5.000000e-001 -7.000000e+000
         vertex 1.634976e+000 2.727516e+000 -7.000000e+000
         vertex 2.969221e+000 8.910862e-001 -7.000000e+000
      endloop
   endfacet
   facet normal 0.000000e+000 0.000000e+000 -1.000000e+000
      outer loop
         vertex 2.969221e+000 8.910862e-001 -7.000000e+000
         vertex 1.634976e+000 2.727516e+000 -7.000000e+000
         vertex 1.969463e+000 2.522542e+000 -7.000000e+000
      endloop
   endfacet
   facet normal 0.000000e+000 0.000000e+000 -1.000000e+000
      outer loop
         vertex 1.969463e+000 2.522542e+000 -7.000000e+000
         vertex 2.267767e+000 2.267767e+000 -7.000000e+000
         vertex 2.969221e+000 8.910862e-001 -7.000000e+000
      endloop
   endfacet
   facet normal 0.000000e+000 0.000000e+000 -1.000000e+000
      outer loop
         vertex 2.969221e+000 8.910862e-001 -7.000000e+000
         vertex 2.267767e+000 2.267767e+000 -7.000000e+000
         vertex 2.522542e+000 1.969463e+000 -7.000000e+000
      endloop
   endfacet
   facet normal 0.000000e+000 0.000000e+000 -1.000000e+000
      outer loop
         vertex 2.969221e+000 8.910862e-001 -7.000000e+000
         vertex 2.522542e+000 1.969463e+000 -7.000000e+000
         vertex 2.877641e+000 1.272542e+000 -7.000000e+000
      endloop
   endfacet
   facet normal 0.000000e+000 0.000000e+000 -1.000000e+000
      outer loop
         vertex 2.877641e+000 1.272542e+000 -7.000000e+000
         vertex 2.522542e+000 1.969463e+000 -7.000000e+000
         vertex 2.727516e+000 1.634976e+000 -7.000000e+000
      endloop
   endfacet
   facet normal 1.000000e+000 -1.239088e-016 0.000000e+000
      outer loop
         vertex 3.000000e+000 -3.000000e+000 -7.000000e+000
         vertex 3.000000e+000 5.000000e-001 -7.000000e+000
         vertex 3.000000e+000 -3.000000e+000 1.250000e+002
      endloop
   endfacet
   facet normal 1.000000e+000 -1.239088e-016 0.000000e+000
      outer loop
         vertex 3.000000e+000 -3.000000e+000 1.250000e+002
         vertex 3.000000e+000 5.000000e-001 -7.000000e+000
         vertex 3.000000e+000 5.000000e-001 1.250000e+002
      endloop
   endfacet
   facet normal 0.000000e+000 0.000000e+000 1.000000e+000
      outer loop
         vertex -3.000000e+000 -3.000000e+000 1.250000e+002
         vertex 3.000000e+000 -3.000000e+000 1.250000e+002
         vertex -3.000000e+000 5.000000e-001 1.250000e+002
      endloop
   endfacet
   facet normal 0.000000e+000 0.000000e+000 1.000000e+000
      outer loop
         vertex -3.000000e+000 5.000000e-001 1.250000e+002
         vertex 3.000000e+000 -3.000000e+000 1.250000e+002
         vertex 3.000000e+000 5.000000e-001 1.250000e+002
      endloop
   endfacet
   facet normal 0.000000e+000 0.000000e+000 1.000000e+000
      outer loop
         vertex 3.000000e+000 5.000000e-001 1.250000e+002
         vertex 1.634976e+000 2.727516e+000 1.250000e+002
         vertex 1.272542e+000 2.877641e+000 1.250000e+002
      endloop
   endfacet
   facet normal 0.000000e+000 0.000000e+000 1.000000e+000
      outer loop
         vertex 3.000000e+000 5.000000e-001 1.250000e+002
         vertex 2.969221e+000 8.910862e-001 1.250000e+002
         vertex 1.634976e+000 2.727516e+000 1.250000e+002
      endloop
   endfacet
   facet normal 0.000000e+000 0.000000e+000 1.000000e+000
      outer loop
         vertex 1.634976e+000 2.727516e+000 1.250000e+002
         vertex 2.969221e+000 8.910862e-001 1.250000e+002
         vertex 2.877641e+000 1.272542e+000 1.250000e+002
      endloop
   endfacet
   facet normal 0.000000e+000 0.000000e+000 1.000000e+000
      outer loop
         vertex 1.634976e+000 2.727516e+000 1.250000e+002
         vertex 2.877641e+000 1.272542e+000 1.250000e+002
         vertex 2.727516e+000 1.634976e+000 1.250000e+002
      endloop
   endfacet
   facet normal 0.000000e+000 0.000000e+000 1.000000e+000
      outer loop
         vertex 2.727516e+000 1.634976e+000 1.250000e+002
         vertex 2.522542e+000 1.969463e+000 1.250000e+002
         vertex 1.634976e+000 2.727516e+000 1.250000e+002
      endloop
   endfacet
   facet normal 0.000000e+000 0.000000e+000 1.000000e+000
      outer loop
         vertex 1.634976e+000 2.727516e+000 1.250000e+002
         vertex 2.522542e+000 1.969463e+000 1.250000e+002
         vertex 2.267767e+000 2.267767e+000 1.250000e+002
      endloop
   endfacet
   facet normal 0.000000e+000 0.000000e+000 1.000000e+000
      outer loop
         vertex 1.634976e+000 2.727516e+000 1.250000e+002
         vertex 2.267767e+000 2.267767e+000 1.250000e+002
         vertex 1.969463e+000 2.522542e+000 1.250000e+002
      endloop
   endfacet
   facet normal 0.000000e+000 0.000000e+000 1.000000e+000
      outer loop
         vertex 1.272542e+000 2.877641e+000 1.250000e+002
         vertex 8.910862e-001 2.969221e+000 1.250000e+002
         vertex 3.000000e+000 5.000000e-001 1.250000e+002
      endloop
   endfacet
   facet normal 0.000000e+000 0.000000e+000 1.000000e+000
      outer loop
         vertex 3.000000e+000 5.000000e-001 1.250000e+002
         vertex 8.910862e-001 2.969221e+000 1.250000e+002
         vertex 5.000000e-001 3.000000e+000 1.250000e+002
      endloop
   endfacet
   facet normal 0.000000e+000 0.000000e+000 1.000000e+000
      outer loop
         vertex 3.000000e+000 5.000000e-001 1.250000e+002
         vertex 5.000000e-001 3.000000e+000 1.250000e+002
         vertex -3.000000e+000 5.000000e-001 1.250000e+002
      endloop
   endfacet
   facet normal 0.000000e+000 0.000000e+000 1.000000e+000
      outer loop
         vertex -3.000000e+000 5.000000e-001 1.250000e+002
         vertex 5.000000e-001 3.000000e+000 1.250000e+002
         vertex -5.000000e-001 3.000000e+000 1.250000e+002
      endloop
   endfacet
   facet normal 0.000000e+000 0.000000e+000 1.000000e+000
      outer loop
         vertex -3.000000e+000 5.000000e-001 1.250000e+002
         vertex -5.000000e-001 3.000000e+000 1.250000e+002
         vertex -2.969221e+000 8.910862e-001 1.250000e+002
      endloop
   endfacet
   facet normal 0.000000e+000 0.000000e+000 1.000000e+000
      outer loop
         vertex -2.969221e+000 8.910862e-001 1.250000e+002
         vertex -5.000000e-001 3.000000e+000 1.250000e+002
         vertex -8.910862e-001 2.969221e+000 1.250000e+002
      endloop
   endfacet
   facet normal 0.000000e+000 0.000000e+000 1.000000e+000
      outer loop
         vertex -2.969221e+000 8.910862e-001 1.250000e+002
         vertex -8.910862e-001 2.969221e+000 1.250000e+002
         vertex -1.272542e+000 2.877641e+000 1.250000e+002
      endloop
   endfacet
   facet normal 0.000000e+000 0.000000e+000 1.000000e+000
      outer loop
         vertex -2.522542e+000 1.969463e+000 1.250000e+002
         vertex -2.727516e+000 1.634976e+000 1.250000e+002
         vertex -2.267767e+000 2.267767e+000 1.250000e+002
      endloop
   endfacet
   facet normal 0.000000e+000 0.000000e+000 1.000000e+000
      outer loop
         vertex -2.267767e+000 2.267767e+000 1.250000e+002
         vertex -2.727516e+000 1.634976e+000 1.250000e+002
         vertex -1.969463e+000 2.522542e+000 1.250000e+002
      endloop
   endfacet
   facet normal 0.000000e+000 0.000000e+000 1.000000e+000
      outer loop
         vertex -1.272542e+000 2.877641e+000 1.250000e+002
         vertex -1.634976e+000 2.727516e+000 1.250000e+002
         vertex -2.969221e+000 8.910862e-001 1.250000e+002
      endloop
   endfacet
   facet normal 0.000000e+000 0.000000e+000 1.000000e+000
      outer loop
         vertex -2.969221e+000 8.910862e-001 1.250000e+002
         vertex -1.634976e+000 2.727516e+000 1.250000e+002
         vertex -1.969463e+000 2.522542e+000 1.250000e+002
      endloop
   endfacet
   facet normal 0.000000e+000 0.000000e+000 1.000000e+000
      outer loop
         vertex -2.969221e+000 8.910862e-001 1.250000e+002
         vertex -1.969463e+000 2.522542e+000 1.250000e+002
         vertex -2.877641e+000 1.272542e+000 1.250000e+002
      endloop
   endfacet
   facet normal 0.000000e+000 0.000000e+000 1.000000e+000
      outer loop
         vertex -2.877641e+000 1.272542e+000 1.250000e+002
         vertex -1.969463e+000 2.522542e+000 1.250000e+002
         vertex -2.727516e+000 1.634976e+000 1.250000e+002
      endloop
   endfacet
   facet normal -1.000000e+000 1.239088e-016 0.000000e+000
      outer loop
         vertex -3.000000e+000 5.000000e-001 -7.000000e+000
         vertex -3.000000e+000 -3.000000e+000 -7.000000e+000
         vertex -3.000000e+000 5.000000e-001 1.250000e+002
      endloop
   endfacet
   facet normal -1.000000e+000 1.239088e-016 0.000000e+000
      outer loop
         vertex -3.000000e+000 5.000000e-001 1.250000e+002
         vertex -3.000000e+000 -3.000000e+000 -7.000000e+000
         vertex -3.000000e+000 -3.000000e+000 1.250000e+002
      endloop
   endfacet
   facet normal -1.445603e-016 -1.000000e+000 0.000000e+000
      outer loop
         vertex -3.000000e+000 -3.000000e+000 -7.000000e+000
         vertex 3.000000e+000 -3.000000e+000 -7.000000e+000
         vertex -3.000000e+000 -3.000000e+000 1.250000e+002
      endloop
   endfacet
   facet normal -1.445603e-016 -1.000000e+000 0.000000e+000
      outer loop
         vertex -3.000000e+000 -3.000000e+000 1.250000e+002
         vertex 3.000000e+000 -3.000000e+000 -7.000000e+000
         vertex 3.000000e+000 -3.000000e+000 1.250000e+002
      endloop
   endfacet
endsolid